<?xml version="1.0" encoding="utf-8"?>
<!-- Generator: Adobe Illustrator 27.9.0, SVG Export Plug-In . SVG Version: 6.00 Build 0)  -->
<svg version="1.1" id="Layer_1" xmlns="http://www.w3.org/2000/svg" xmlns:xlink="http://www.w3.org/1999/xlink" x="0px" y="0px"
	 viewBox="0 0 489.1 59.7" style="enable-background:new 0 0 489.1 59.7;" xml:space="preserve">
<style type="text/css">
	.st0{fill:#29668B;}
	.st1{fill:none;stroke:#000000;stroke-width:4;}
	.st2{clip-path:url(#SVGID_00000088129212754254462380000008672095564202323588_);}
	.st3{fill:#FFFFFF;}
</style>
<g>
	<g>
		<g transform="translate(13.689528, 206.249986)">
			<g>
				<path class="st0" d="M7.4-148v-2.8c1.9,0,3.4-0.2,4.5-0.4c1.2-0.2,2-0.6,2.7-1.2c0.6-0.6,1.1-1.4,1.3-2.5
					c0.2-1.1,0.3-2.5,0.3-4.2v-34.3c0-1.7-0.1-3.1-0.2-4.1c-0.2-1.1-0.5-1.9-1-2.5c-0.5-0.6-1.3-1-2.2-1.2c-1-0.2-2.2-0.4-3.8-0.5
					v-2.8h25.8c4.4,0,8.4,0.7,12.2,2.2c3.8,1.5,7,3.5,9.7,6.1c2.7,2.6,4.8,5.7,6.4,9.2c1.5,3.6,2.3,7.5,2.3,11.7c0,4-0.7,7.7-2.1,11
					c-1.4,3.3-3.4,6.2-6,8.6c-2.6,2.4-5.6,4.3-9.2,5.6c-3.6,1.3-7.5,2-11.7,2h-29V-148z M25.1-200.9c-0.8,0-1.2,0.4-1.2,1.3v39.7
					c0,5.6,3.6,8.4,10.9,8.4c6.7,0,11.8-2,15.4-6s5.4-9.8,5.4-17.6c0-4.1-0.5-7.7-1.5-10.9c-1-3.2-2.4-5.9-4.2-8.1s-4.1-3.9-6.6-5.1
					c-2.6-1.2-5.5-1.8-8.8-1.8L25.1-200.9L25.1-200.9z"/>
			</g>
		</g>
	</g>
	<g>
		<g transform="translate(60.270993, 206.249986)">
			<g>
				<path class="st0" d="M39.2-161.9c0,2.4,0.1,4.4,0.3,5.8s0.6,2.5,1.1,3.3c0.6,0.8,1.4,1.3,2.4,1.5c1.1,0.2,2.4,0.4,4.1,0.4v2.8
					H23.4v-2.7c1.7,0,3.1-0.2,4.1-0.5c1.1-0.3,1.9-0.8,2.5-1.5c0.6-0.7,1-1.8,1.2-3.1s0.3-3.2,0.3-5.5v-29.8c0-2.1-0.1-3.8-0.3-5.1
					c-0.2-1.3-0.5-2.4-1-3.2c-0.5-0.8-1.3-1.3-2.2-1.7c-1-0.3-2.2-0.5-3.8-0.6v-2.8h22.3v2.8c-1.6,0.1-2.8,0.3-3.8,0.6
					c-0.9,0.3-1.7,0.9-2.2,1.7c-0.5,0.8-0.9,1.9-1,3.3c-0.2,1.4-0.2,3.2-0.2,5.4L39.2-161.9L39.2-161.9z"/>
			</g>
		</g>
	</g>
	<g>
		<g transform="translate(81.059319, 206.249986)">
			<g>
				<path class="st0" d="M31.3-165.3H34c0.3,2.2,1,4.2,1.9,5.9c1,1.8,2.2,3.3,3.6,4.5c1.4,1.2,3.1,2.2,5,2.8c1.9,0.7,3.9,1,6.1,1
					c3.6,0,6.5-0.9,8.6-2.6c2.1-1.7,3.2-4,3.2-7c0-1.2-0.2-2.3-0.6-3.4c-0.4-1-1.1-2-2.1-3s-2.3-1.9-3.9-2.8c-1.6-0.9-3.7-1.9-6.2-3
					c-3-1.3-5.6-2.6-7.6-3.8c-2-1.2-3.7-2.5-4.9-3.8s-2.1-2.7-2.6-4.2s-0.8-3.2-0.8-5.1c0-2.2,0.4-4.3,1.2-6.2
					c0.8-1.9,1.9-3.6,3.4-5c1.5-1.4,3.2-2.5,5.2-3.2c2-0.8,4.2-1.1,6.6-1.1c2.2,0,4.2,0.3,6,1c1.9,0.7,3.7,1.8,5.6,3.3l1.9-3.3h1.7
					l0.8,14.6h-2.7c-1.2-4-2.9-7-5.1-8.9c-2.2-2-4.9-2.9-8-2.9c-3,0-5.4,0.7-7.1,2.2c-1.8,1.5-2.6,3.4-2.6,5.9
					c0,1.2,0.2,2.2,0.6,3.2c0.4,0.9,1,1.8,1.9,2.7c0.9,0.9,2,1.7,3.5,2.6c1.4,0.8,3.2,1.7,5.3,2.7c3.6,1.6,6.6,3.1,9,4.5
					c2.4,1.4,4.3,2.8,5.7,4.2c1.4,1.4,2.4,2.9,3,4.4s0.9,3.3,0.9,5.2c0,2.4-0.5,4.7-1.5,6.8c-1,2.1-2.3,3.8-4.1,5.3
					c-1.8,1.5-3.9,2.6-6.3,3.4c-2.4,0.8-5.1,1.2-8.1,1.2c-2.8,0-5.3-0.4-7.5-1.2s-4.5-2.1-6.8-4l-2,3.6h-1.7L31.3-165.3z"/>
			</g>
		</g>
	</g>
	<g>
		<g transform="translate(114.496728, 206.249986)">
			<g>
				<path class="st0" d="M74-168.5H54.4c-0.8,2-1.5,3.8-2.1,5.3s-1.1,2.9-1.4,4c-0.4,1.1-0.6,2.1-0.8,2.9c-0.1,0.8-0.2,1.4-0.2,1.9
					c0,1.4,0.4,2.3,1.3,2.8c0.9,0.5,2.3,0.8,4.4,0.8v2.8H37.7v-2.8c1.1-0.1,2.1-0.3,2.9-0.6c0.8-0.2,1.5-0.6,2.1-1
					c0.6-0.4,1.1-1,1.6-1.7s0.9-1.6,1.4-2.6l19.1-47.7h3.1L84.5-163c1.1,2.7,2.1,4.9,2.9,6.6c0.8,1.6,1.6,2.9,2.4,3.7
					c0.8,0.8,1.6,1.4,2.5,1.6s2,0.4,3.3,0.4v2.9H71.8v-2.9c2.6,0,4.4-0.2,5.3-0.7c1-0.5,1.5-1.3,1.5-2.4c0-0.5,0-0.9-0.1-1.4
					c0-0.4-0.1-0.9-0.2-1.4s-0.3-1-0.5-1.6c-0.2-0.6-0.5-1.3-0.8-2.2L74-168.5z M55.8-172.2h16.7l-8.1-21.6L55.8-172.2z"/>
			</g>
		</g>
	</g>
	<g>
		<g transform="translate(154.918642, 206.249986)">
			<g>
				<path class="st0" d="M55.9-165.3h2.7c0.3,2.2,1,4.2,1.9,5.9c1,1.8,2.2,3.3,3.6,4.5s3.1,2.2,5,2.8c1.9,0.7,3.9,1,6.1,1
					c3.6,0,6.5-0.9,8.6-2.6c2.1-1.7,3.2-4,3.2-7c0-1.2-0.2-2.3-0.6-3.4c-0.4-1-1.1-2-2.1-3s-2.3-1.9-3.9-2.8c-1.6-0.9-3.7-1.9-6.2-3
					c-3-1.3-5.6-2.6-7.6-3.8c-2-1.2-3.7-2.5-4.9-3.8s-2.1-2.7-2.6-4.2s-0.8-3.2-0.8-5.1c0-2.2,0.4-4.3,1.2-6.2
					c0.8-1.9,1.9-3.6,3.4-5c1.5-1.4,3.2-2.5,5.2-3.2c2-0.8,4.2-1.1,6.6-1.1c2.2,0,4.2,0.3,6,1c1.9,0.7,3.7,1.8,5.6,3.3l1.9-3.3h1.7
					l0.8,14.6H88c-1.2-4-2.9-7-5.1-8.9c-2.2-2-4.9-2.9-8-2.9c-3,0-5.4,0.7-7.1,2.2c-1.8,1.5-2.6,3.4-2.6,5.9c0,1.2,0.2,2.2,0.6,3.2
					c0.4,0.9,1,1.8,1.9,2.7c0.9,0.9,2,1.7,3.5,2.6c1.4,0.8,3.2,1.7,5.3,2.7c3.6,1.6,6.6,3.1,9,4.5c2.4,1.4,4.3,2.8,5.7,4.2
					c1.4,1.4,2.4,2.9,3,4.4s0.9,3.3,0.9,5.2c0,2.4-0.5,4.7-1.5,6.8c-1,2.1-2.3,3.8-4.1,5.3c-1.8,1.5-3.9,2.6-6.3,3.4
					s-5.1,1.2-8.1,1.2c-2.8,0-5.3-0.4-7.5-1.2s-4.5-2.1-6.8-4l-2,3.6H57L55.9-165.3z"/>
			</g>
		</g>
	</g>
	<g>
		<g transform="translate(188.356055, 206.249986)">
			<g>
				<path class="st0" d="M120.4-190.5h-3c-0.1-2.1-0.5-3.9-1-5.3c-0.5-1.4-1.3-2.5-2.3-3.4c-1-0.8-2.3-1.4-3.8-1.7s-3.3-0.5-5.4-0.5
					c-1.8,0-3.3,0-4.4,0.1c-1.1,0.1-1.9,0.2-2.5,0.4s-1,0.4-1.1,0.7c-0.2,0.3-0.2,0.6-0.2,1.1v39.2c0,1.6,0.1,2.9,0.3,4
					c0.2,1.1,0.7,2,1.3,2.8c0.7,0.7,1.6,1.3,2.9,1.6c1.2,0.4,2.9,0.6,5,0.6v2.8H78.3v-2.7c2.1,0,3.7-0.2,5-0.6
					c1.3-0.4,2.2-0.9,2.9-1.6c0.7-0.7,1.1-1.6,1.3-2.8c0.2-1.1,0.3-2.5,0.3-4v-39.3c0-0.4-0.1-0.8-0.3-1.1c-0.2-0.3-0.5-0.5-1-0.7
					s-1.2-0.3-2.2-0.4c-0.9-0.1-2.2-0.1-3.7-0.1c-1.9,0-3.7,0.1-5.3,0.2c-1.6,0.1-3.1,0.6-4.3,1.3c-1.2,0.7-2.2,1.8-2.9,3.3
					c-0.7,1.5-1.1,3.5-1.2,6.1h-2.7v-14h55.4L120.4-190.5z"/>
			</g>
		</g>
	</g>
	<g>
		<g transform="translate(230.482842, 206.249986)">
			<g>
				<path class="st0" d="M95.9-179.1c2.6,0,4.8-0.2,6.6-0.5c1.8-0.3,3.2-0.8,4.3-1.5c1.1-0.7,1.8-1.6,2.3-2.6
					c0.5-1.1,0.7-2.4,0.7-3.8h2.6v20h-2.6c0-1.5-0.2-2.7-0.6-3.8c-0.4-1.1-1.1-2-2.2-2.7c-1.1-0.7-2.5-1.2-4.3-1.6s-4-0.6-6.8-0.6
					v16.6c0,1.6,0.2,3,0.6,4s1.1,1.9,2,2.6c1,0.7,2.2,1.1,3.8,1.4c1.6,0.3,3.5,0.4,5.8,0.4c2.6,0,4.8-0.2,6.6-0.5
					c1.8-0.4,3.3-1,4.6-1.9c1.2-0.9,2.2-2.1,2.9-3.5c0.7-1.4,1.3-3.2,1.8-5.4h2.8l-1.1,14.4H80.1v-2.7c1.7,0,3.1-0.2,4.1-0.4
					c1.1-0.2,1.9-0.7,2.5-1.2c0.6-0.6,1-1.4,1.2-2.5c0.2-1.1,0.3-2.5,0.3-4.2v-34.3c0-1.7-0.1-3.1-0.3-4.1c-0.2-1.1-0.5-1.9-1-2.5
					c-0.5-0.6-1.3-1-2.2-1.2c-1-0.2-2.2-0.4-3.8-0.5v-2.8h42.4l0.7,12.9h-2.6c-0.3-2-0.8-3.6-1.4-4.8c-0.7-1.2-1.6-2.2-2.7-3
					c-1.1-0.7-2.6-1.2-4.4-1.5s-3.9-0.4-6.4-0.4h-9.3c-0.8,0-1.2,0.4-1.2,1.3L95.9-179.1L95.9-179.1z"/>
			</g>
		</g>
	</g>
	<g>
		<g transform="translate(268.374937, 206.249986)">
			<g>
				<path class="st0" d="M140-204.5h2.1l0.7,16.9H140c-1.1-4.3-3.1-7.7-6.2-10.1c-3.1-2.4-6.8-3.7-11.1-3.7c-3,0-5.7,0.6-8,1.8
					s-4.3,2.9-5.9,5.1c-1.6,2.2-2.8,4.9-3.7,8.1c-0.8,3.2-1.3,6.8-1.3,10.8c0,7.9,1.6,13.9,4.9,18.2c3.3,4.2,8,6.3,14.2,6.3
					c9.4,0,15.5-5,18.2-15h3v18.2h-2.6l-1.7-5.8c-5.1,4.3-11.3,6.5-18.6,6.5c-4.2,0-7.9-0.7-11.3-2c-3.3-1.3-6.2-3.2-8.6-5.6
					c-2.4-2.4-4.2-5.4-5.5-8.8c-1.3-3.5-1.9-7.3-1.9-11.6c0-4.5,0.7-8.5,2-12.2c1.4-3.7,3.3-6.8,5.8-9.5c2.5-2.6,5.4-4.7,8.9-6.1
					c3.4-1.4,7.2-2.2,11.4-2.2c2.9,0,5.7,0.4,8.3,1.2c2.6,0.8,5.4,2.2,8.4,4L140-204.5z"/>
			</g>
		</g>
	</g>
	<g>
		<g transform="translate(310.446711, 206.249986)">
			<g>
				<path class="st0" d="M159.9-159.7c0,1.9,0.1,3.4,0.3,4.5c0.2,1.2,0.6,2,1.1,2.6c0.6,0.6,1.4,1,2.4,1.3c1.1,0.2,2.4,0.4,4.1,0.4
					v2.8H144v-2.7c1.7,0,3.1-0.2,4.1-0.4c1.1-0.2,1.9-0.7,2.5-1.2c0.6-0.6,1-1.4,1.2-2.5c0.2-1.1,0.3-2.5,0.3-4.2v-16h-29.7v15.4
					c0,1.9,0.1,3.4,0.3,4.5c0.2,1.2,0.6,2,1.1,2.6c0.6,0.6,1.4,1,2.4,1.3c1.1,0.2,2.4,0.4,4.1,0.4v2.8h-23.8v-2.7
					c1.7,0,3.1-0.2,4.1-0.4c1.1-0.2,1.9-0.7,2.5-1.2c0.6-0.6,1-1.4,1.2-2.5c0.2-1.1,0.3-2.5,0.3-4.2v-34.3c0-1.7-0.1-3.1-0.3-4.1
					c-0.2-1.1-0.5-1.9-1-2.5c-0.5-0.6-1.3-1-2.2-1.2c-1-0.2-2.2-0.4-3.8-0.5v-2.8h22.3v2.8c-1.6,0.1-2.8,0.2-3.8,0.5
					c-0.9,0.2-1.7,0.7-2.2,1.3s-0.9,1.5-1,2.6c-0.2,1.1-0.2,2.6-0.2,4.5v14h29.7v-14.6c0-1.7-0.1-3.1-0.3-4.1
					c-0.2-1.1-0.5-1.9-1-2.5c-0.5-0.6-1.3-1-2.2-1.2c-1-0.2-2.2-0.4-3.8-0.5v-2.8h22.3v2.8c-1.6,0.1-2.8,0.2-3.8,0.5
					c-0.9,0.2-1.7,0.7-2.2,1.3s-0.9,1.5-1,2.6c-0.2,1.1-0.2,2.6-0.2,4.5L159.9-159.7L159.9-159.7z"/>
			</g>
		</g>
	</g>
	<path class="st1" d="M0,31.2L0,31.2"/>
	<g>
		<g>
			<defs>
				<rect id="SVGID_1_" x="9.3" y="31.9" width="252" height="3"/>
			</defs>
			<clipPath id="SVGID_00000134956818052674667860000008162167415414630577_">
				<use xlink:href="#SVGID_1_"  style="overflow:visible;"/>
			</clipPath>
			<g style="clip-path:url(#SVGID_00000134956818052674667860000008162167415414630577_);">
				<path class="st3" d="M260.9,34.9H9.6v-3h251.2v3"/>
			</g>
		</g>
	</g>
</g>
</svg>
